<mxfile host="Electron" agent="Mozilla/5.0 (Windows NT 10.0; Win64; x64) AppleWebKit/537.36 (KHTML, like Gecko) draw.io/23.1.5 Chrome/120.0.6099.109 Electron/28.1.0 Safari/537.36" modified="2024-10-02T08:08:54.548Z" etag="e33TQBkQVLDDj-ZnlS_Z" version="23.1.5" type="device">
  <diagram name="Page-1" id="NZjvagu_SI8gjcH6Co_J">
    <mxGraphModel dx="1208" dy="702" grid="1" gridSize="10" guides="1" tooltips="1" connect="1" arrows="1" fold="1" page="1" pageScale="1" pageWidth="850" pageHeight="1100" math="0" shadow="0">
      <root>
        <mxCell id="0" />
        <mxCell id="1" parent="0" />
        <UserObject label="&lt;table xmlns=&quot;http://www.w3.org/1999/xhtml&quot; cellspacing=&quot;0&quot; cellpadding=&quot;0&quot; dir=&quot;ltr&quot; border=&quot;1&quot; style=&quot;table-layout:fixed;font-size:10pt;font-family:Arial;width:0px;border-collapse:collapse;border:none&quot; data-sheets-root=&quot;1&quot; data-sheets-baot=&quot;1&quot;&gt;&lt;colgroup&gt;&lt;col width=&quot;108&quot;&gt;&lt;col width=&quot;128&quot;&gt;&lt;col width=&quot;206&quot;&gt;&lt;/colgroup&gt;&lt;tbody&gt;&lt;tr style=&quot;height:21px;&quot;&gt;&lt;td style=&quot;border-top:1px solid #000000;border-right:1px solid #000000;border-bottom:1px solid #000000;border-left:1px solid #000000;overflow:hidden;padding:2px 3px 2px 3px;vertical-align:bottom;font-size:13pt;text-align:center;&quot; rowspan=&quot;1&quot; colspan=&quot;3&quot;&gt;ProductType&lt;/td&gt;&lt;/tr&gt;&lt;tr style=&quot;height:21px;&quot;&gt;&lt;td style=&quot;border-right:1px solid #000000;border-bottom:1px solid #000000;border-left:1px solid #000000;overflow:hidden;padding:2px 3px 2px 3px;vertical-align:bottom;text-align:center;&quot;&gt;Field&lt;/td&gt;&lt;td style=&quot;border-right:1px solid #000000;border-bottom:1px solid #000000;overflow:hidden;padding:2px 3px 2px 3px;vertical-align:bottom;text-align:center;&quot;&gt;Data-type&lt;/td&gt;&lt;td style=&quot;border-right:1px solid #000000;border-bottom:1px solid #000000;overflow:hidden;padding:2px 3px 2px 3px;vertical-align:bottom;text-align:center;&quot;&gt;Note&lt;/td&gt;&lt;/tr&gt;&lt;tr style=&quot;height:21px;&quot;&gt;&lt;td style=&quot;border-right:1px solid #000000;border-bottom:1px solid #000000;border-left:1px solid #000000;overflow:hidden;padding:2px 3px 2px 3px;vertical-align:bottom;text-align:center;&quot;&gt;id&lt;/td&gt;&lt;td style=&quot;border-right:1px solid #000000;border-bottom:1px solid #000000;overflow:hidden;padding:2px 3px 2px 3px;vertical-align:bottom;text-align:center;&quot;&gt;Long&lt;/td&gt;&lt;td style=&quot;border-right:1px solid #000000;border-bottom:1px solid #000000;overflow:hidden;padding:2px 3px 2px 3px;vertical-align:bottom;text-align:center;&quot;&gt;Generate Value&lt;/td&gt;&lt;/tr&gt;&lt;tr style=&quot;height:21px;&quot;&gt;&lt;td style=&quot;border-right:1px solid #000000;border-bottom:1px solid #000000;border-left:1px solid #000000;overflow:hidden;padding:2px 3px 2px 3px;vertical-align:bottom;text-align:center;&quot;&gt;typeProduct&lt;/td&gt;&lt;td style=&quot;border-right:1px solid #000000;border-bottom:1px solid #000000;overflow:hidden;padding:2px 3px 2px 3px;vertical-align:bottom;text-align:center;&quot;&gt;String (50)&lt;/td&gt;&lt;td style=&quot;border-right:1px solid #000000;border-bottom:1px solid #000000;overflow:hidden;padding:2px 3px 2px 3px;vertical-align:bottom;&quot;&gt;&lt;/td&gt;&lt;/tr&gt;&lt;tr style=&quot;height:21px;&quot;&gt;&lt;td style=&quot;border-right:1px solid #000000;border-bottom:1px solid #000000;border-left:1px solid #000000;overflow:hidden;padding:2px 3px 2px 3px;vertical-align:bottom;text-align:center;&quot;&gt;productId&lt;/td&gt;&lt;td style=&quot;border-right:1px solid #000000;border-bottom:1px solid #000000;overflow:hidden;padding:2px 3px 2px 3px;vertical-align:bottom;text-align:center;&quot;&gt;Long&lt;/td&gt;&lt;td style=&quot;border-right:1px solid #000000;border-bottom:1px solid #000000;overflow:hidden;padding:2px 3px 2px 3px;vertical-align:bottom;text-align:center;&quot;&gt;Mapping field id (Product) 1-n&lt;/td&gt;&lt;/tr&gt;&lt;/tbody&gt;&lt;/table&gt;" link="&lt;table xmlns=&quot;http://www.w3.org/1999/xhtml&quot; cellspacing=&quot;0&quot; cellpadding=&quot;0&quot; dir=&quot;ltr&quot; border=&quot;1&quot; style=&quot;table-layout:fixed;font-size:10pt;font-family:Arial;width:0px;border-collapse:collapse;border:none&quot; data-sheets-root=&quot;1&quot; data-sheets-baot=&quot;1&quot;&gt;&lt;colgroup&gt;&lt;col width=&quot;108&quot;&gt;&lt;col width=&quot;128&quot;&gt;&lt;col width=&quot;206&quot;&gt;&lt;/colgroup&gt;&lt;tbody&gt;&lt;tr style=&quot;height:21px;&quot;&gt;&lt;td style=&quot;border-top:1px solid #000000;border-right:1px solid #000000;border-bottom:1px solid #000000;border-left:1px solid #000000;overflow:hidden;padding:2px 3px 2px 3px;vertical-align:bottom;font-size:13pt;text-align:center;&quot; rowspan=&quot;1&quot; colspan=&quot;3&quot;&gt;ProductType&lt;/td&gt;&lt;/tr&gt;&lt;tr style=&quot;height:21px;&quot;&gt;&lt;td style=&quot;border-right:1px solid #000000;border-bottom:1px solid #000000;border-left:1px solid #000000;overflow:hidden;padding:2px 3px 2px 3px;vertical-align:bottom;text-align:center;&quot;&gt;Field&lt;/td&gt;&lt;td style=&quot;border-right:1px solid #000000;border-bottom:1px solid #000000;overflow:hidden;padding:2px 3px 2px 3px;vertical-align:bottom;text-align:center;&quot;&gt;Data-type&lt;/td&gt;&lt;td style=&quot;border-right:1px solid #000000;border-bottom:1px solid #000000;overflow:hidden;padding:2px 3px 2px 3px;vertical-align:bottom;text-align:center;&quot;&gt;Note&lt;/td&gt;&lt;/tr&gt;&lt;tr style=&quot;height:21px;&quot;&gt;&lt;td style=&quot;border-right:1px solid #000000;border-bottom:1px solid #000000;border-left:1px solid #000000;overflow:hidden;padding:2px 3px 2px 3px;vertical-align:bottom;text-align:center;&quot;&gt;id&lt;/td&gt;&lt;td style=&quot;border-right:1px solid #000000;border-bottom:1px solid #000000;overflow:hidden;padding:2px 3px 2px 3px;vertical-align:bottom;text-align:center;&quot;&gt;Long&lt;/td&gt;&lt;td style=&quot;border-right:1px solid #000000;border-bottom:1px solid #000000;overflow:hidden;padding:2px 3px 2px 3px;vertical-align:bottom;text-align:center;&quot;&gt;Generate Value&lt;/td&gt;&lt;/tr&gt;&lt;tr style=&quot;height:21px;&quot;&gt;&lt;td style=&quot;border-right:1px solid #000000;border-bottom:1px solid #000000;border-left:1px solid #000000;overflow:hidden;padding:2px 3px 2px 3px;vertical-align:bottom;text-align:center;&quot;&gt;typeProduct&lt;/td&gt;&lt;td style=&quot;border-right:1px solid #000000;border-bottom:1px solid #000000;overflow:hidden;padding:2px 3px 2px 3px;vertical-align:bottom;text-align:center;&quot;&gt;String (50)&lt;/td&gt;&lt;td style=&quot;border-right:1px solid #000000;border-bottom:1px solid #000000;overflow:hidden;padding:2px 3px 2px 3px;vertical-align:bottom;&quot;&gt;&lt;/td&gt;&lt;/tr&gt;&lt;tr style=&quot;height:21px;&quot;&gt;&lt;td style=&quot;border-right:1px solid #000000;border-bottom:1px solid #000000;border-left:1px solid #000000;overflow:hidden;padding:2px 3px 2px 3px;vertical-align:bottom;text-align:center;&quot;&gt;productId&lt;/td&gt;&lt;td style=&quot;border-right:1px solid #000000;border-bottom:1px solid #000000;overflow:hidden;padding:2px 3px 2px 3px;vertical-align:bottom;text-align:center;&quot;&gt;Long&lt;/td&gt;&lt;td style=&quot;border-right:1px solid #000000;border-bottom:1px solid #000000;overflow:hidden;padding:2px 3px 2px 3px;vertical-align:bottom;text-align:center;&quot;&gt;Mapping field id (Product) 1-n&lt;/td&gt;&lt;/tr&gt;&lt;/tbody&gt;&lt;/table&gt;" id="St9KOOZ8AL37jJnrv6oZ-10">
          <mxCell style="text;whiteSpace=wrap;html=1;" parent="1" vertex="1">
            <mxGeometry x="40" y="210" width="450" height="130" as="geometry" />
          </mxCell>
        </UserObject>
        <mxCell id="St9KOOZ8AL37jJnrv6oZ-12" value="" style="edgeStyle=orthogonalEdgeStyle;rounded=0;orthogonalLoop=1;jettySize=auto;html=1;" parent="1" source="St9KOOZ8AL37jJnrv6oZ-11" target="St9KOOZ8AL37jJnrv6oZ-10" edge="1">
          <mxGeometry relative="1" as="geometry" />
        </mxCell>
        <UserObject label="&lt;table xmlns=&quot;http://www.w3.org/1999/xhtml&quot; cellspacing=&quot;0&quot; cellpadding=&quot;0&quot; dir=&quot;ltr&quot; border=&quot;1&quot; style=&quot;table-layout:fixed;font-size:10pt;font-family:Arial;width:0px;border-collapse:collapse;border:none&quot; data-sheets-root=&quot;1&quot; data-sheets-baot=&quot;1&quot;&gt;&lt;colgroup&gt;&lt;col width=&quot;108&quot;&gt;&lt;col width=&quot;128&quot;&gt;&lt;col width=&quot;206&quot;&gt;&lt;/colgroup&gt;&lt;tbody&gt;&lt;tr style=&quot;height:27px;&quot;&gt;&lt;td style=&quot;border-top:1px solid #000000;border-right:1px solid #000000;border-bottom:1px solid #000000;border-left:1px solid #000000;overflow:hidden;padding:2px 3px 2px 3px;vertical-align:bottom;font-size:13pt;text-align:center;&quot; rowspan=&quot;1&quot; colspan=&quot;3&quot;&gt;Product&lt;/td&gt;&lt;/tr&gt;&lt;tr style=&quot;height:21px;&quot;&gt;&lt;td style=&quot;border-right:1px solid #000000;border-bottom:1px solid #000000;border-left:1px solid #000000;overflow:hidden;padding:2px 3px 2px 3px;vertical-align:bottom;text-align:center;&quot;&gt;Field&lt;/td&gt;&lt;td style=&quot;border-right:1px solid #000000;border-bottom:1px solid #000000;overflow:hidden;padding:2px 3px 2px 3px;vertical-align:bottom;text-align:center;&quot;&gt;Data-type&lt;/td&gt;&lt;td style=&quot;border-right:1px solid #000000;border-bottom:1px solid #000000;overflow:hidden;padding:2px 3px 2px 3px;vertical-align:bottom;text-align:center;&quot;&gt;Note&lt;/td&gt;&lt;/tr&gt;&lt;tr style=&quot;height:21px;&quot;&gt;&lt;td style=&quot;border-right:1px solid #000000;border-bottom:1px solid #000000;border-left:1px solid #000000;overflow:hidden;padding:2px 3px 2px 3px;vertical-align:bottom;text-align:center;&quot;&gt;id&lt;/td&gt;&lt;td style=&quot;border-right:1px solid #000000;border-bottom:1px solid #000000;overflow:hidden;padding:2px 3px 2px 3px;vertical-align:bottom;text-align:center;&quot;&gt;Long&lt;/td&gt;&lt;td style=&quot;border-right:1px solid #000000;border-bottom:1px solid #000000;overflow:hidden;padding:2px 3px 2px 3px;vertical-align:bottom;text-align:center;&quot;&gt;Generate Value&lt;/td&gt;&lt;/tr&gt;&lt;tr style=&quot;height:21px;&quot;&gt;&lt;td style=&quot;border-right:1px solid #000000;border-bottom:1px solid #000000;border-left:1px solid #000000;overflow:hidden;padding:2px 3px 2px 3px;vertical-align:bottom;text-align:center;&quot;&gt;name&lt;/td&gt;&lt;td style=&quot;border-right:1px solid #000000;border-bottom:1px solid #000000;overflow:hidden;padding:2px 3px 2px 3px;vertical-align:bottom;text-align:center;&quot;&gt;String (50)&lt;/td&gt;&lt;td style=&quot;border-right:1px solid #000000;border-bottom:1px solid #000000;overflow:hidden;padding:2px 3px 2px 3px;vertical-align:bottom;&quot;&gt;&lt;/td&gt;&lt;/tr&gt;&lt;tr style=&quot;height:21px;&quot;&gt;&lt;td style=&quot;border-right:1px solid #000000;border-bottom:1px solid #000000;border-left:1px solid #000000;overflow:hidden;padding:2px 3px 2px 3px;vertical-align:bottom;text-align:center;&quot;&gt;quantity&lt;/td&gt;&lt;td style=&quot;border-right:1px solid #000000;border-bottom:1px solid #000000;overflow:hidden;padding:2px 3px 2px 3px;vertical-align:bottom;text-align:center;&quot;&gt;int&lt;/td&gt;&lt;td style=&quot;border-right:1px solid #000000;border-bottom:1px solid #000000;overflow:hidden;padding:2px 3px 2px 3px;vertical-align:bottom;&quot;&gt;&lt;/td&gt;&lt;/tr&gt;&lt;tr style=&quot;height:21px;&quot;&gt;&lt;td style=&quot;border-right:1px solid #000000;border-bottom:1px solid #000000;border-left:1px solid #000000;overflow:hidden;padding:2px 3px 2px 3px;vertical-align:bottom;text-align:center;&quot;&gt;descriptions&lt;/td&gt;&lt;td style=&quot;border-right:1px solid #000000;border-bottom:1px solid #000000;overflow:hidden;padding:2px 3px 2px 3px;vertical-align:bottom;text-align:center;&quot;&gt;String (300)&lt;/td&gt;&lt;td style=&quot;border-right:1px solid #000000;border-bottom:1px solid #000000;overflow:hidden;padding:2px 3px 2px 3px;vertical-align:bottom;text-align:center;&quot;&gt;allow null&lt;/td&gt;&lt;/tr&gt;&lt;tr style=&quot;height:21px;&quot;&gt;&lt;td style=&quot;border-right:1px solid #000000;border-bottom:1px solid #000000;border-left:1px solid #000000;overflow:hidden;padding:2px 3px 2px 3px;vertical-align:bottom;text-align:center;&quot;&gt;size&lt;/td&gt;&lt;td style=&quot;border-right:1px solid #000000;border-bottom:1px solid #000000;overflow:hidden;padding:2px 3px 2px 3px;vertical-align:bottom;text-align:center;&quot;&gt;String(10) / enum&lt;/td&gt;&lt;td style=&quot;border-right:1px solid #000000;border-bottom:1px solid #000000;overflow:hidden;padding:2px 3px 2px 3px;vertical-align:bottom;&quot;&gt;&lt;/td&gt;&lt;/tr&gt;&lt;tr style=&quot;height:21px;&quot;&gt;&lt;td style=&quot;border-right:1px solid #000000;border-bottom:1px solid #000000;border-left:1px solid #000000;overflow:hidden;padding:2px 3px 2px 3px;vertical-align:bottom;text-align:center;&quot;&gt;status&lt;/td&gt;&lt;td style=&quot;border-right:1px solid #000000;border-bottom:1px solid #000000;overflow:hidden;padding:2px 3px 2px 3px;vertical-align:bottom;text-align:center;&quot;&gt;String (20)&lt;/td&gt;&lt;td style=&quot;border-right:1px solid #000000;border-bottom:1px solid #000000;overflow:hidden;padding:2px 3px 2px 3px;vertical-align:bottom;text-align:center;&quot;&gt;allow null&lt;/td&gt;&lt;/tr&gt;&lt;tr style=&quot;height:21px;&quot;&gt;&lt;td style=&quot;border-right:1px solid #000000;border-bottom:1px solid #000000;border-left:1px solid #000000;overflow:hidden;padding:2px 3px 2px 3px;vertical-align:bottom;text-align:center;&quot;&gt;imageProduct&lt;/td&gt;&lt;td style=&quot;border-right:1px solid #000000;border-bottom:1px solid #000000;overflow:hidden;padding:2px 3px 2px 3px;vertical-align:bottom;text-align:center;&quot;&gt;link image / byte[ ]&lt;/td&gt;&lt;td style=&quot;border-right:1px solid #000000;border-bottom:1px solid #000000;overflow:hidden;padding:2px 3px 2px 3px;vertical-align:bottom;&quot;&gt;&lt;/td&gt;&lt;/tr&gt;&lt;tr style=&quot;height:21px;&quot;&gt;&lt;td style=&quot;border-right:1px solid #000000;border-bottom:1px solid #000000;border-left:1px solid #000000;overflow:hidden;padding:2px 3px 2px 3px;vertical-align:bottom;text-align:center;&quot;&gt;createdAt&lt;/td&gt;&lt;td style=&quot;border-right:1px solid #000000;border-bottom:1px solid #000000;overflow:hidden;padding:2px 3px 2px 3px;vertical-align:bottom;text-align:center;&quot;&gt;DateTime&lt;/td&gt;&lt;td style=&quot;border-right:1px solid #000000;border-bottom:1px solid #000000;overflow:hidden;padding:2px 3px 2px 3px;vertical-align:bottom;&quot;&gt;&lt;/td&gt;&lt;/tr&gt;&lt;tr style=&quot;height:21px;&quot;&gt;&lt;td style=&quot;border-right:1px solid #000000;border-bottom:1px solid #000000;border-left:1px solid #000000;overflow:hidden;padding:2px 3px 2px 3px;vertical-align:bottom;text-align:center;&quot;&gt;updatedAt&lt;/td&gt;&lt;td style=&quot;border-right:1px solid #000000;border-bottom:1px solid #000000;overflow:hidden;padding:2px 3px 2px 3px;vertical-align:bottom;text-align:center;&quot;&gt;DateTime&lt;/td&gt;&lt;td style=&quot;border-right:1px solid #000000;border-bottom:1px solid #000000;overflow:hidden;padding:2px 3px 2px 3px;vertical-align:bottom;text-align:center;&quot;&gt;allow null&lt;/td&gt;&lt;/tr&gt;&lt;tr style=&quot;height:21px;&quot;&gt;&lt;td style=&quot;border-right:1px solid #000000;border-bottom:1px solid #000000;border-left:1px solid #000000;overflow:hidden;padding:2px 3px 2px 3px;vertical-align:bottom;text-align:center;&quot;&gt;removedAt&lt;/td&gt;&lt;td style=&quot;border-right:1px solid #000000;border-bottom:1px solid #000000;overflow:hidden;padding:2px 3px 2px 3px;vertical-align:bottom;text-align:center;&quot;&gt;DateTime&lt;/td&gt;&lt;td style=&quot;border-right:1px solid #000000;border-bottom:1px solid #000000;overflow:hidden;padding:2px 3px 2px 3px;vertical-align:bottom;text-align:center;&quot;&gt;allow null&lt;/td&gt;&lt;/tr&gt;&lt;tr style=&quot;height:21px;&quot;&gt;&lt;td style=&quot;border-right:1px solid #000000;border-bottom:1px solid #000000;border-left:1px solid #000000;overflow:hidden;padding:2px 3px 2px 3px;vertical-align:bottom;text-align:center;&quot;&gt;typeProduct&lt;/td&gt;&lt;td style=&quot;border-right:1px solid #000000;border-bottom:1px solid #000000;overflow:hidden;padding:2px 3px 2px 3px;vertical-align:bottom;text-align:center;&quot;&gt;String (50)&lt;/td&gt;&lt;td style=&quot;border-right:1px solid #000000;border-bottom:1px solid #000000;overflow:hidden;padding:2px 3px 2px 3px;vertical-align:bottom;text-align:center;&quot;&gt;Mapping with ProductType n-1&lt;/td&gt;&lt;/tr&gt;&lt;tr style=&quot;height:21px;&quot;&gt;&lt;td style=&quot;border-right:1px solid #000000;border-bottom:1px solid #000000;border-left:1px solid #000000;overflow:hidden;padding:2px 3px 2px 3px;vertical-align:bottom;text-align:center;&quot;&gt;price&lt;/td&gt;&lt;td style=&quot;border-right:1px solid #000000;border-bottom:1px solid #000000;overflow:hidden;padding:2px 3px 2px 3px;vertical-align:bottom;text-align:center;&quot;&gt;double&lt;/td&gt;&lt;td style=&quot;border-right:1px solid #000000;border-bottom:1px solid #000000;overflow:hidden;padding:2px 3px 2px 3px;vertical-align:bottom;text-align:center;&quot;&gt;Mapping with ProductType 1-n&lt;/td&gt;&lt;/tr&gt;&lt;/tbody&gt;&lt;/table&gt;" link="&lt;table xmlns=&quot;http://www.w3.org/1999/xhtml&quot; cellspacing=&quot;0&quot; cellpadding=&quot;0&quot; dir=&quot;ltr&quot; border=&quot;1&quot; style=&quot;table-layout:fixed;font-size:10pt;font-family:Arial;width:0px;border-collapse:collapse;border:none&quot; data-sheets-root=&quot;1&quot; data-sheets-baot=&quot;1&quot;&gt;&lt;colgroup&gt;&lt;col width=&quot;108&quot;&gt;&lt;col width=&quot;128&quot;&gt;&lt;col width=&quot;206&quot;&gt;&lt;/colgroup&gt;&lt;tbody&gt;&lt;tr style=&quot;height:27px;&quot;&gt;&lt;td style=&quot;border-top:1px solid #000000;border-right:1px solid #000000;border-bottom:1px solid #000000;border-left:1px solid #000000;overflow:hidden;padding:2px 3px 2px 3px;vertical-align:bottom;font-size:13pt;text-align:center;&quot; rowspan=&quot;1&quot; colspan=&quot;3&quot;&gt;Product&lt;/td&gt;&lt;/tr&gt;&lt;tr style=&quot;height:21px;&quot;&gt;&lt;td style=&quot;border-right:1px solid #000000;border-bottom:1px solid #000000;border-left:1px solid #000000;overflow:hidden;padding:2px 3px 2px 3px;vertical-align:bottom;text-align:center;&quot;&gt;Field&lt;/td&gt;&lt;td style=&quot;border-right:1px solid #000000;border-bottom:1px solid #000000;overflow:hidden;padding:2px 3px 2px 3px;vertical-align:bottom;text-align:center;&quot;&gt;Data-type&lt;/td&gt;&lt;td style=&quot;border-right:1px solid #000000;border-bottom:1px solid #000000;overflow:hidden;padding:2px 3px 2px 3px;vertical-align:bottom;text-align:center;&quot;&gt;Note&lt;/td&gt;&lt;/tr&gt;&lt;tr style=&quot;height:21px;&quot;&gt;&lt;td style=&quot;border-right:1px solid #000000;border-bottom:1px solid #000000;border-left:1px solid #000000;overflow:hidden;padding:2px 3px 2px 3px;vertical-align:bottom;text-align:center;&quot;&gt;id&lt;/td&gt;&lt;td style=&quot;border-right:1px solid #000000;border-bottom:1px solid #000000;overflow:hidden;padding:2px 3px 2px 3px;vertical-align:bottom;text-align:center;&quot;&gt;Long&lt;/td&gt;&lt;td style=&quot;border-right:1px solid #000000;border-bottom:1px solid #000000;overflow:hidden;padding:2px 3px 2px 3px;vertical-align:bottom;text-align:center;&quot;&gt;Generate Value&lt;/td&gt;&lt;/tr&gt;&lt;tr style=&quot;height:21px;&quot;&gt;&lt;td style=&quot;border-right:1px solid #000000;border-bottom:1px solid #000000;border-left:1px solid #000000;overflow:hidden;padding:2px 3px 2px 3px;vertical-align:bottom;text-align:center;&quot;&gt;name&lt;/td&gt;&lt;td style=&quot;border-right:1px solid #000000;border-bottom:1px solid #000000;overflow:hidden;padding:2px 3px 2px 3px;vertical-align:bottom;text-align:center;&quot;&gt;String (50)&lt;/td&gt;&lt;td style=&quot;border-right:1px solid #000000;border-bottom:1px solid #000000;overflow:hidden;padding:2px 3px 2px 3px;vertical-align:bottom;&quot;&gt;&lt;/td&gt;&lt;/tr&gt;&lt;tr style=&quot;height:21px;&quot;&gt;&lt;td style=&quot;border-right:1px solid #000000;border-bottom:1px solid #000000;border-left:1px solid #000000;overflow:hidden;padding:2px 3px 2px 3px;vertical-align:bottom;text-align:center;&quot;&gt;quantity&lt;/td&gt;&lt;td style=&quot;border-right:1px solid #000000;border-bottom:1px solid #000000;overflow:hidden;padding:2px 3px 2px 3px;vertical-align:bottom;text-align:center;&quot;&gt;int&lt;/td&gt;&lt;td style=&quot;border-right:1px solid #000000;border-bottom:1px solid #000000;overflow:hidden;padding:2px 3px 2px 3px;vertical-align:bottom;&quot;&gt;&lt;/td&gt;&lt;/tr&gt;&lt;tr style=&quot;height:21px;&quot;&gt;&lt;td style=&quot;border-right:1px solid #000000;border-bottom:1px solid #000000;border-left:1px solid #000000;overflow:hidden;padding:2px 3px 2px 3px;vertical-align:bottom;text-align:center;&quot;&gt;descriptions&lt;/td&gt;&lt;td style=&quot;border-right:1px solid #000000;border-bottom:1px solid #000000;overflow:hidden;padding:2px 3px 2px 3px;vertical-align:bottom;text-align:center;&quot;&gt;String (300)&lt;/td&gt;&lt;td style=&quot;border-right:1px solid #000000;border-bottom:1px solid #000000;overflow:hidden;padding:2px 3px 2px 3px;vertical-align:bottom;text-align:center;&quot;&gt;allow null&lt;/td&gt;&lt;/tr&gt;&lt;tr style=&quot;height:21px;&quot;&gt;&lt;td style=&quot;border-right:1px solid #000000;border-bottom:1px solid #000000;border-left:1px solid #000000;overflow:hidden;padding:2px 3px 2px 3px;vertical-align:bottom;text-align:center;&quot;&gt;size&lt;/td&gt;&lt;td style=&quot;border-right:1px solid #000000;border-bottom:1px solid #000000;overflow:hidden;padding:2px 3px 2px 3px;vertical-align:bottom;text-align:center;&quot;&gt;String(10) / enum&lt;/td&gt;&lt;td style=&quot;border-right:1px solid #000000;border-bottom:1px solid #000000;overflow:hidden;padding:2px 3px 2px 3px;vertical-align:bottom;&quot;&gt;&lt;/td&gt;&lt;/tr&gt;&lt;tr style=&quot;height:21px;&quot;&gt;&lt;td style=&quot;border-right:1px solid #000000;border-bottom:1px solid #000000;border-left:1px solid #000000;overflow:hidden;padding:2px 3px 2px 3px;vertical-align:bottom;text-align:center;&quot;&gt;status&lt;/td&gt;&lt;td style=&quot;border-right:1px solid #000000;border-bottom:1px solid #000000;overflow:hidden;padding:2px 3px 2px 3px;vertical-align:bottom;text-align:center;&quot;&gt;String (20)&lt;/td&gt;&lt;td style=&quot;border-right:1px solid #000000;border-bottom:1px solid #000000;overflow:hidden;padding:2px 3px 2px 3px;vertical-align:bottom;text-align:center;&quot;&gt;allow null&lt;/td&gt;&lt;/tr&gt;&lt;tr style=&quot;height:21px;&quot;&gt;&lt;td style=&quot;border-right:1px solid #000000;border-bottom:1px solid #000000;border-left:1px solid #000000;overflow:hidden;padding:2px 3px 2px 3px;vertical-align:bottom;text-align:center;&quot;&gt;imageProduct&lt;/td&gt;&lt;td style=&quot;border-right:1px solid #000000;border-bottom:1px solid #000000;overflow:hidden;padding:2px 3px 2px 3px;vertical-align:bottom;text-align:center;&quot;&gt;link image / byte[ ]&lt;/td&gt;&lt;td style=&quot;border-right:1px solid #000000;border-bottom:1px solid #000000;overflow:hidden;padding:2px 3px 2px 3px;vertical-align:bottom;&quot;&gt;&lt;/td&gt;&lt;/tr&gt;&lt;tr style=&quot;height:21px;&quot;&gt;&lt;td style=&quot;border-right:1px solid #000000;border-bottom:1px solid #000000;border-left:1px solid #000000;overflow:hidden;padding:2px 3px 2px 3px;vertical-align:bottom;text-align:center;&quot;&gt;createdAt&lt;/td&gt;&lt;td style=&quot;border-right:1px solid #000000;border-bottom:1px solid #000000;overflow:hidden;padding:2px 3px 2px 3px;vertical-align:bottom;text-align:center;&quot;&gt;DateTime&lt;/td&gt;&lt;td style=&quot;border-right:1px solid #000000;border-bottom:1px solid #000000;overflow:hidden;padding:2px 3px 2px 3px;vertical-align:bottom;&quot;&gt;&lt;/td&gt;&lt;/tr&gt;&lt;tr style=&quot;height:21px;&quot;&gt;&lt;td style=&quot;border-right:1px solid #000000;border-bottom:1px solid #000000;border-left:1px solid #000000;overflow:hidden;padding:2px 3px 2px 3px;vertical-align:bottom;text-align:center;&quot;&gt;updatedAt&lt;/td&gt;&lt;td style=&quot;border-right:1px solid #000000;border-bottom:1px solid #000000;overflow:hidden;padding:2px 3px 2px 3px;vertical-align:bottom;text-align:center;&quot;&gt;DateTime&lt;/td&gt;&lt;td style=&quot;border-right:1px solid #000000;border-bottom:1px solid #000000;overflow:hidden;padding:2px 3px 2px 3px;vertical-align:bottom;text-align:center;&quot;&gt;allow null&lt;/td&gt;&lt;/tr&gt;&lt;tr style=&quot;height:21px;&quot;&gt;&lt;td style=&quot;border-right:1px solid #000000;border-bottom:1px solid #000000;border-left:1px solid #000000;overflow:hidden;padding:2px 3px 2px 3px;vertical-align:bottom;text-align:center;&quot;&gt;removedAt&lt;/td&gt;&lt;td style=&quot;border-right:1px solid #000000;border-bottom:1px solid #000000;overflow:hidden;padding:2px 3px 2px 3px;vertical-align:bottom;text-align:center;&quot;&gt;DateTime&lt;/td&gt;&lt;td style=&quot;border-right:1px solid #000000;border-bottom:1px solid #000000;overflow:hidden;padding:2px 3px 2px 3px;vertical-align:bottom;text-align:center;&quot;&gt;allow null&lt;/td&gt;&lt;/tr&gt;&lt;tr style=&quot;height:21px;&quot;&gt;&lt;td style=&quot;border-right:1px solid #000000;border-bottom:1px solid #000000;border-left:1px solid #000000;overflow:hidden;padding:2px 3px 2px 3px;vertical-align:bottom;text-align:center;&quot;&gt;typeProduct&lt;/td&gt;&lt;td style=&quot;border-right:1px solid #000000;border-bottom:1px solid #000000;overflow:hidden;padding:2px 3px 2px 3px;vertical-align:bottom;text-align:center;&quot;&gt;String (50)&lt;/td&gt;&lt;td style=&quot;border-right:1px solid #000000;border-bottom:1px solid #000000;overflow:hidden;padding:2px 3px 2px 3px;vertical-align:bottom;text-align:center;&quot;&gt;Mapping with ProductType n-1&lt;/td&gt;&lt;/tr&gt;&lt;tr style=&quot;height:21px;&quot;&gt;&lt;td style=&quot;border-right:1px solid #000000;border-bottom:1px solid #000000;border-left:1px solid #000000;overflow:hidden;padding:2px 3px 2px 3px;vertical-align:bottom;text-align:center;&quot;&gt;price&lt;/td&gt;&lt;td style=&quot;border-right:1px solid #000000;border-bottom:1px solid #000000;overflow:hidden;padding:2px 3px 2px 3px;vertical-align:bottom;text-align:center;&quot;&gt;double&lt;/td&gt;&lt;td style=&quot;border-right:1px solid #000000;border-bottom:1px solid #000000;overflow:hidden;padding:2px 3px 2px 3px;vertical-align:bottom;text-align:center;&quot;&gt;Mapping with ProductType 1-1&lt;/td&gt;&lt;/tr&gt;&lt;/tbody&gt;&lt;/table&gt;" id="St9KOOZ8AL37jJnrv6oZ-11">
          <mxCell style="text;whiteSpace=wrap;html=1;" parent="1" vertex="1">
            <mxGeometry x="560" y="115" width="450" height="320" as="geometry" />
          </mxCell>
        </UserObject>
        <mxCell id="St9KOOZ8AL37jJnrv6oZ-16" value="" style="edgeStyle=orthogonalEdgeStyle;rounded=0;orthogonalLoop=1;jettySize=auto;html=1;" parent="1" source="St9KOOZ8AL37jJnrv6oZ-15" target="St9KOOZ8AL37jJnrv6oZ-11" edge="1">
          <mxGeometry relative="1" as="geometry" />
        </mxCell>
        <UserObject label="&lt;table xmlns=&quot;http://www.w3.org/1999/xhtml&quot; cellspacing=&quot;0&quot; cellpadding=&quot;0&quot; dir=&quot;ltr&quot; border=&quot;1&quot; style=&quot;table-layout:fixed;font-size:10pt;font-family:Arial;width:0px;border-collapse:collapse;border:none&quot; data-sheets-root=&quot;1&quot; data-sheets-baot=&quot;1&quot;&gt;&lt;colgroup&gt;&lt;col width=&quot;108&quot;&gt;&lt;col width=&quot;128&quot;&gt;&lt;col width=&quot;206&quot;&gt;&lt;/colgroup&gt;&lt;tbody&gt;&lt;tr style=&quot;height:21px;&quot;&gt;&lt;td style=&quot;border-top:1px solid #000000;border-right:1px solid #000000;border-bottom:1px solid #000000;border-left:1px solid #000000;overflow:hidden;padding:2px 3px 2px 3px;vertical-align:bottom;font-size:13pt;text-align:center;&quot; rowspan=&quot;1&quot; colspan=&quot;3&quot;&gt;ProductPrice&lt;/td&gt;&lt;/tr&gt;&lt;tr style=&quot;height:21px;&quot;&gt;&lt;td style=&quot;border-right:1px solid #000000;border-bottom:1px solid #000000;border-left:1px solid #000000;overflow:hidden;padding:2px 3px 2px 3px;vertical-align:bottom;text-align:center;&quot;&gt;Field&lt;/td&gt;&lt;td style=&quot;border-right:1px solid #000000;border-bottom:1px solid #000000;overflow:hidden;padding:2px 3px 2px 3px;vertical-align:bottom;text-align:center;&quot;&gt;Data-type&lt;/td&gt;&lt;td style=&quot;border-right:1px solid #000000;border-bottom:1px solid #000000;overflow:hidden;padding:2px 3px 2px 3px;vertical-align:bottom;text-align:center;&quot;&gt;Note&lt;/td&gt;&lt;/tr&gt;&lt;tr style=&quot;height:21px;&quot;&gt;&lt;td style=&quot;border-right:1px solid #000000;border-bottom:1px solid #000000;border-left:1px solid #000000;overflow:hidden;padding:2px 3px 2px 3px;vertical-align:bottom;text-align:center;&quot;&gt;id&lt;/td&gt;&lt;td style=&quot;border-right:1px solid #000000;border-bottom:1px solid #000000;overflow:hidden;padding:2px 3px 2px 3px;vertical-align:bottom;text-align:center;&quot;&gt;Long&lt;/td&gt;&lt;td style=&quot;border-right:1px solid #000000;border-bottom:1px solid #000000;overflow:hidden;padding:2px 3px 2px 3px;vertical-align:bottom;text-align:center;&quot;&gt;Generate Value&lt;/td&gt;&lt;/tr&gt;&lt;tr style=&quot;height:21px;&quot;&gt;&lt;td style=&quot;border-right:1px solid #000000;border-bottom:1px solid #000000;border-left:1px solid #000000;overflow:hidden;padding:2px 3px 2px 3px;vertical-align:bottom;text-align:center;&quot;&gt;productId&lt;/td&gt;&lt;td style=&quot;border-right:1px solid #000000;border-bottom:1px solid #000000;overflow:hidden;padding:2px 3px 2px 3px;vertical-align:bottom;text-align:center;&quot;&gt;Long&lt;/td&gt;&lt;td style=&quot;border-right:1px solid #000000;border-bottom:1px solid #000000;overflow:hidden;padding:2px 3px 2px 3px;vertical-align:bottom;text-align:center;&quot;&gt;Mapping n-1 field id Product&lt;/td&gt;&lt;/tr&gt;&lt;tr style=&quot;height:21px;&quot;&gt;&lt;td style=&quot;border-right:1px solid #000000;border-bottom:1px solid #000000;border-left:1px solid #000000;overflow:hidden;padding:2px 3px 2px 3px;vertical-align:bottom;text-align:center;&quot;&gt;name&lt;/td&gt;&lt;td style=&quot;border-right:1px solid #000000;border-bottom:1px solid #000000;overflow:hidden;padding:2px 3px 2px 3px;vertical-align:bottom;text-align:center;&quot;&gt;String (50)&lt;/td&gt;&lt;td style=&quot;border-right:1px solid #000000;border-bottom:1px solid #000000;overflow:hidden;padding:2px 3px 2px 3px;vertical-align:bottom;&quot;&gt;&lt;/td&gt;&lt;/tr&gt;&lt;tr style=&quot;height:21px;&quot;&gt;&lt;td style=&quot;border-right:1px solid #000000;border-bottom:1px solid #000000;border-left:1px solid #000000;overflow:hidden;padding:2px 3px 2px 3px;vertical-align:bottom;text-align:center;&quot;&gt;price&lt;/td&gt;&lt;td style=&quot;border-right:1px solid #000000;border-bottom:1px solid #000000;overflow:hidden;padding:2px 3px 2px 3px;vertical-align:bottom;text-align:center;&quot;&gt;double&lt;/td&gt;&lt;td style=&quot;border-right:1px solid #000000;border-bottom:1px solid #000000;overflow:hidden;padding:2px 3px 2px 3px;vertical-align:bottom;text-align:center;&quot;&gt;unique Mapping n-1 Product&lt;/td&gt;&lt;/tr&gt;&lt;tr style=&quot;height:21px;&quot;&gt;&lt;td style=&quot;border-right:1px solid #000000;border-bottom:1px solid #000000;border-left:1px solid #000000;overflow:hidden;padding:2px 3px 2px 3px;vertical-align:bottom;text-align:center;&quot;&gt;updatedAt&lt;/td&gt;&lt;td style=&quot;border-right:1px solid #000000;border-bottom:1px solid #000000;overflow:hidden;padding:2px 3px 2px 3px;vertical-align:bottom;text-align:center;&quot;&gt;DateTime&lt;/td&gt;&lt;td style=&quot;border-right:1px solid #000000;border-bottom:1px solid #000000;overflow:hidden;padding:2px 3px 2px 3px;vertical-align:bottom;&quot;&gt;&lt;/td&gt;&lt;/tr&gt;&lt;/tbody&gt;&lt;/table&gt;" link="&lt;table xmlns=&quot;http://www.w3.org/1999/xhtml&quot; cellspacing=&quot;0&quot; cellpadding=&quot;0&quot; dir=&quot;ltr&quot; border=&quot;1&quot; style=&quot;table-layout:fixed;font-size:10pt;font-family:Arial;width:0px;border-collapse:collapse;border:none&quot; data-sheets-root=&quot;1&quot; data-sheets-baot=&quot;1&quot;&gt;&lt;colgroup&gt;&lt;col width=&quot;108&quot;&gt;&lt;col width=&quot;128&quot;&gt;&lt;col width=&quot;206&quot;&gt;&lt;/colgroup&gt;&lt;tbody&gt;&lt;tr style=&quot;height:21px;&quot;&gt;&lt;td style=&quot;border-top:1px solid #000000;border-right:1px solid #000000;border-bottom:1px solid #000000;border-left:1px solid #000000;overflow:hidden;padding:2px 3px 2px 3px;vertical-align:bottom;font-size:13pt;text-align:center;&quot; rowspan=&quot;1&quot; colspan=&quot;3&quot;&gt;ProductPrice&lt;/td&gt;&lt;/tr&gt;&lt;tr style=&quot;height:21px;&quot;&gt;&lt;td style=&quot;border-right:1px solid #000000;border-bottom:1px solid #000000;border-left:1px solid #000000;overflow:hidden;padding:2px 3px 2px 3px;vertical-align:bottom;text-align:center;&quot;&gt;Field&lt;/td&gt;&lt;td style=&quot;border-right:1px solid #000000;border-bottom:1px solid #000000;overflow:hidden;padding:2px 3px 2px 3px;vertical-align:bottom;text-align:center;&quot;&gt;Data-type&lt;/td&gt;&lt;td style=&quot;border-right:1px solid #000000;border-bottom:1px solid #000000;overflow:hidden;padding:2px 3px 2px 3px;vertical-align:bottom;text-align:center;&quot;&gt;Note&lt;/td&gt;&lt;/tr&gt;&lt;tr style=&quot;height:21px;&quot;&gt;&lt;td style=&quot;border-right:1px solid #000000;border-bottom:1px solid #000000;border-left:1px solid #000000;overflow:hidden;padding:2px 3px 2px 3px;vertical-align:bottom;text-align:center;&quot;&gt;id&lt;/td&gt;&lt;td style=&quot;border-right:1px solid #000000;border-bottom:1px solid #000000;overflow:hidden;padding:2px 3px 2px 3px;vertical-align:bottom;text-align:center;&quot;&gt;Long&lt;/td&gt;&lt;td style=&quot;border-right:1px solid #000000;border-bottom:1px solid #000000;overflow:hidden;padding:2px 3px 2px 3px;vertical-align:bottom;text-align:center;&quot;&gt;Generate Value&lt;/td&gt;&lt;/tr&gt;&lt;tr style=&quot;height:21px;&quot;&gt;&lt;td style=&quot;border-right:1px solid #000000;border-bottom:1px solid #000000;border-left:1px solid #000000;overflow:hidden;padding:2px 3px 2px 3px;vertical-align:bottom;text-align:center;&quot;&gt;productId&lt;/td&gt;&lt;td style=&quot;border-right:1px solid #000000;border-bottom:1px solid #000000;overflow:hidden;padding:2px 3px 2px 3px;vertical-align:bottom;text-align:center;&quot;&gt;Long&lt;/td&gt;&lt;td style=&quot;border-right:1px solid #000000;border-bottom:1px solid #000000;overflow:hidden;padding:2px 3px 2px 3px;vertical-align:bottom;text-align:center;&quot;&gt;Mapping n-1 field id Product&lt;/td&gt;&lt;/tr&gt;&lt;tr style=&quot;height:21px;&quot;&gt;&lt;td style=&quot;border-right:1px solid #000000;border-bottom:1px solid #000000;border-left:1px solid #000000;overflow:hidden;padding:2px 3px 2px 3px;vertical-align:bottom;text-align:center;&quot;&gt;name&lt;/td&gt;&lt;td style=&quot;border-right:1px solid #000000;border-bottom:1px solid #000000;overflow:hidden;padding:2px 3px 2px 3px;vertical-align:bottom;text-align:center;&quot;&gt;String (50)&lt;/td&gt;&lt;td style=&quot;border-right:1px solid #000000;border-bottom:1px solid #000000;overflow:hidden;padding:2px 3px 2px 3px;vertical-align:bottom;&quot;&gt;&lt;/td&gt;&lt;/tr&gt;&lt;tr style=&quot;height:21px;&quot;&gt;&lt;td style=&quot;border-right:1px solid #000000;border-bottom:1px solid #000000;border-left:1px solid #000000;overflow:hidden;padding:2px 3px 2px 3px;vertical-align:bottom;text-align:center;&quot;&gt;price&lt;/td&gt;&lt;td style=&quot;border-right:1px solid #000000;border-bottom:1px solid #000000;overflow:hidden;padding:2px 3px 2px 3px;vertical-align:bottom;text-align:center;&quot;&gt;double&lt;/td&gt;&lt;td style=&quot;border-right:1px solid #000000;border-bottom:1px solid #000000;overflow:hidden;padding:2px 3px 2px 3px;vertical-align:bottom;text-align:center;&quot;&gt;unique Mapping n-1 Product&lt;/td&gt;&lt;/tr&gt;&lt;tr style=&quot;height:21px;&quot;&gt;&lt;td style=&quot;border-right:1px solid #000000;border-bottom:1px solid #000000;border-left:1px solid #000000;overflow:hidden;padding:2px 3px 2px 3px;vertical-align:bottom;text-align:center;&quot;&gt;updatedAt&lt;/td&gt;&lt;td style=&quot;border-right:1px solid #000000;border-bottom:1px solid #000000;overflow:hidden;padding:2px 3px 2px 3px;vertical-align:bottom;text-align:center;&quot;&gt;DateTime&lt;/td&gt;&lt;td style=&quot;border-right:1px solid #000000;border-bottom:1px solid #000000;overflow:hidden;padding:2px 3px 2px 3px;vertical-align:bottom;&quot;&gt;&lt;/td&gt;&lt;/tr&gt;&lt;/tbody&gt;&lt;/table&gt;" id="St9KOOZ8AL37jJnrv6oZ-15">
          <mxCell style="text;whiteSpace=wrap;html=1;" parent="1" vertex="1">
            <mxGeometry x="560" y="540" width="450" height="170" as="geometry" />
          </mxCell>
        </UserObject>
      </root>
    </mxGraphModel>
  </diagram>
</mxfile>
